# xmcd
#
# Track frame offsets:
#	150
#	13162
#	26972
#	41775
#	56047
#	70466
#	84651
#	98822
#	112261
#	121941
#	133464
#	148193
#	161042
#	172704
#	184245
#	197950
#	210926
#	222161
#	234232
#	247212
#	258811
#	272448
#	284470
#	298616
#
# Disc length: 4181 seconds
#
# Revision: 0
# Processed by: cddbd v1.5.2PL0 Copyright (c) Steve Scherf et al.
# Submitted via: dBpowerAMP V4.0
#
DISCID=7c105318
DTITLE=Varios artistas - Bluesmen Sing Spirituals - When The Blues Go Marching In
DYEAR=2005
DGENRE=Blues
TTITLE0=Brother Son Bonds - Ain´t That News?
TTITLE1=Joshua White - Whilethe Blood Runs Warm in Your Veins
TTITLE2=Blind Willie Johnson - John the Revelator
TTITLE3=Lil McClintock - Mother Called Her Child to Her Dying Bed
TTITLE4=Blind Gary Davis - Lord, Stand by Me
TTITLE5=Kid Prince Moore - Sign of Judgment
TTITLE6=Brownie McGhee - Precious Lord Hold My Hand
TTITLE7=Blind Willie McTell - Motherless Children Have a Hard Time
TTITLE8=Muddy Waters - You Got to Take Sick and Die Some of These Days
TTITLE9=Sister O.M Terrell - Swing Low, Chariot
TTITLE10=Sister Rosetta Tharpe - The Natural Facts
TTITLE11=Brother John Sellers - Great Day
TTITLE12=Papa Lightfoot - When the Saints Go Marching In
TTITLE13=Sister Winona Carr - I Heard the News
TTITLE14=Cousin Joe - When Your Mother´s Gone
TTITLE15=Goldia Haynes - Traveling
TTITLE16=Marie Deloach - I Want to Die Easy
TTITLE17=Smokey Hogg - He Knows How Much We Can Bear 
TTITLE18=Lightning Hopkins - Needed Time
TTITLE19=Allen Bunn - I Have Found No Friend
TTITLE20=Sonny Terry -  Beautiful City
TTITLE21=Josh White - Joshua Fit the battle
TTITLE22=Big Bill Broonzy - Nobody Knows the Trouble I´ve Seen
TTITLE23=Brother John Sellers - Down by the Riverside
EXTD=Colección Saga-blues Nº 26
EXTT0=
EXTT1=
EXTT2=
EXTT3=
EXTT4=
EXTT5=
EXTT6=
EXTT7=
EXTT8=
EXTT9=
EXTT10=
EXTT11=
EXTT12=
EXTT13=
EXTT14=
EXTT15=
EXTT16=
EXTT17=
EXTT18=
EXTT19=
EXTT20=
EXTT21=
EXTT22=
EXTT23=
PLAYORDER=
